<svg width="177" height="215" viewBox="0 0 177 215" fill="none" xmlns="http://www.w3.org/2000/svg">
<path d="M169.466 73.5161C163.704 59.5574 154.753 47.8965 143.812 38.9793C147.894 32.2229 148.854 23.7173 145.596 15.8634C140.177 2.76203 125.155 -3.47997 112.054 1.9732C104.2 5.23139 98.8493 11.9192 96.963 19.5674C82.9356 18.127 68.3595 20.0476 54.4008 25.8437C9.47211 44.4668 -11.8947 95.9804 6.72839 140.943C12.4902 154.902 21.4416 166.563 32.3823 175.48C28.3009 182.237 27.3407 190.742 30.5989 198.596C36.0177 211.697 51.0397 217.94 64.141 212.486C71.995 209.228 77.3452 202.54 79.2316 194.892C93.2589 196.333 107.835 194.412 121.794 188.616C166.722 169.993 188.089 118.479 169.466 73.5161Z" fill="#FF0C4B"/>
<path d="M99.5343 79.6187L99.2942 80.2018H130.984L94.9728 116.213H127.006L64.0716 179.148C65.3062 180.348 66.3008 181.789 66.9867 183.469C69.8676 190.466 66.5409 198.491 59.5787 201.372C56.0804 202.847 52.3078 202.71 49.0839 201.372C47.472 200.72 45.9628 199.76 44.7282 198.491C43.4592 197.256 42.396 195.713 41.6758 193.964C38.7606 186.967 42.0874 178.976 49.0839 176.061C52.5822 174.621 56.3548 174.723 59.5787 176.061L76.8642 134.288V134.185H44.9339L80.9455 98.1732H48.9124L111.984 35.1016C110.818 33.9355 109.892 32.4951 109.206 30.8831C106.325 23.8866 109.617 15.8955 116.614 12.9802C120.112 11.5398 123.885 11.6427 127.109 13.0145C128.652 13.6319 130.093 14.5579 131.327 15.7583C132.665 17.0273 133.762 18.5706 134.517 20.3883C137.398 27.3848 134.105 35.4103 127.109 38.2912C123.611 39.7317 119.872 39.6288 116.648 38.2912L99.5343 79.5844V79.6187Z" fill="white"/>
</svg>
