<svg width="858" height="127" viewBox="0 0 858 127" fill="none" xmlns="http://www.w3.org/2000/svg">
<path fill-rule="evenodd" clip-rule="evenodd" d="M745.834 107.087C737.249 107.087 730.553 104.109 725.747 98.1531C720.982 92.1969 718.6 83.8788 718.6 73.1987C718.6 62.3954 720.982 54.0156 725.747 48.0594C730.512 42.1032 737.208 39.1251 745.834 39.1251C757.212 39.1251 764.996 43.4177 769.186 52.0028H770.111V13H783.235V105.855H771.589L770.111 94.1481H769.186C767.091 98.2558 763.99 101.439 759.882 103.699C755.816 105.958 751.133 107.087 745.834 107.087ZM750.024 96.3663C756.062 96.3663 760.909 94.5794 764.565 91.0057C768.262 87.432 770.111 82.7081 770.111 76.834V69.3785C770.111 63.5045 768.262 58.7806 764.565 55.2069C760.909 51.6331 756.062 49.8463 750.024 49.8463C744.478 49.8463 740.083 51.3661 736.838 54.4059C733.593 57.4045 731.97 61.5533 731.97 66.8523V79.3603C731.97 84.6182 733.552 88.767 736.715 91.8067C739.878 94.8464 744.314 96.3663 750.024 96.3663ZM195.896 105.855H182.155V13.8626H195.896V53.1119H245.743V13.8626H259.483V105.855H245.743V64.5725H195.896V105.855ZM295.901 97.6602L268.543 39.4948H282.653L291.772 60.8139L301.877 85.029H302.617L312.968 60.8139L322.149 39.4948H336.197L309.155 97.6602L295.901 126.928H283.023L295.901 97.6602ZM343.778 126.928H356.779V93.3471H357.642C361.955 102.014 369.739 106.348 380.994 106.348C389.621 106.348 396.337 103.37 401.143 97.4137C405.949 91.4575 408.352 83.0778 408.352 72.2745C408.352 61.5122 405.949 53.153 401.143 47.1968C396.337 41.1995 389.621 38.2009 380.994 38.2009C375.695 38.2009 370.992 39.3511 366.884 41.6514C362.818 43.9106 359.737 47.0941 357.642 51.2018H356.779L355.239 39.4948H343.778V126.928ZM389.99 91.1289C386.745 94.1276 382.35 95.6269 376.805 95.6269C370.807 95.6269 365.96 93.84 362.263 90.2663C358.607 86.6926 356.779 81.9687 356.779 76.0947V68.5159C356.779 62.6419 358.607 57.9385 362.263 54.4059C365.919 50.8321 370.766 49.0453 376.805 49.0453C382.473 49.0453 386.889 50.5857 390.052 53.6665C393.256 56.7062 394.858 60.8139 394.858 65.9897V78.6209C394.858 83.9199 393.235 88.0892 389.99 91.1289ZM417.289 72.5209C417.289 61.7998 420.102 53.3995 425.73 47.32C431.358 41.2406 439.018 38.2009 448.713 38.2009C457.873 38.2009 465.144 40.8914 470.525 46.2726C475.988 51.7358 478.72 59.1092 478.72 68.3927C478.72 70.5698 478.555 72.9522 478.227 75.5401H430.659V79.2371C430.659 84.4949 432.343 88.7464 435.712 91.9915C439.08 95.1956 443.496 96.7976 448.959 96.7976C453.272 96.7976 456.949 95.7912 459.988 93.7784C463.069 91.7656 465.123 89.0545 466.15 85.6451H478.966C477.652 92.1353 474.242 97.3316 468.738 101.234C463.275 105.136 456.641 107.087 448.836 107.087C439.06 107.087 431.358 103.986 425.73 97.7834C420.102 91.5808 417.289 83.1599 417.289 72.5209ZM430.659 64.6957V66.2361H465.595V64.0796C465.595 59.4378 464.034 55.6998 460.913 52.8655C457.791 49.9901 453.683 48.5524 448.589 48.5524C443.29 48.5524 438.977 50.0517 435.65 53.0503C432.323 56.0079 430.659 59.8897 430.659 64.6957ZM526.351 39.4948H503.368C499.137 39.4948 496.159 40.4807 494.434 42.4524C492.75 44.4241 491.908 47.2173 491.908 50.8321V105.855H504.909V50.3392H526.351V39.4948ZM548.474 105.855H535.473V39.4948H546.687L548.474 51.818H549.459C553.239 42.7399 559.934 38.2009 569.546 38.2009C574.311 38.2009 578.378 39.4948 581.746 42.0827C585.114 44.6295 587.476 48.1005 588.832 52.4958H589.879C593.946 42.9659 601.135 38.2009 611.445 38.2009C618.428 38.2009 623.83 40.5423 627.65 45.2251C631.47 49.8668 633.38 56.3981 633.38 64.8189V105.855H620.379V66.3593C620.379 54.8988 615.881 49.1685 606.885 49.1685C601.874 49.1685 597.972 51.0581 595.178 54.8372C592.385 58.5752 590.988 63.6688 590.988 70.1179V105.855H577.864V66.6058C577.864 54.9809 573.449 49.1685 564.617 49.1685C559.729 49.1685 555.806 51.0581 552.848 54.8372C549.932 58.6163 548.474 63.6688 548.474 69.9947V105.855ZM645.336 72.6442C645.336 83.2832 648.191 91.704 653.901 97.9067C659.651 104.027 667.518 107.087 677.5 107.087C687.522 107.087 695.389 103.986 701.098 97.7834C706.808 91.5808 709.663 83.201 709.663 72.6442C709.663 61.923 706.685 53.5227 700.729 47.4433C694.814 41.2817 687.07 38.2009 677.5 38.2009C667.641 38.2009 659.816 41.2817 654.024 47.4433C648.232 53.6049 645.336 62.0052 645.336 72.6442ZM658.583 78.0664V67.7765C658.583 62.19 660.329 57.692 663.821 54.2826C667.312 50.8732 671.872 49.1685 677.5 49.1685C683.045 49.1685 687.563 50.8938 691.055 54.3442C694.547 57.7537 696.292 62.2311 696.292 67.7765V78.0664C696.292 83.6939 694.547 88.1303 691.055 91.3754C687.605 94.6205 683.086 96.243 677.5 96.243C671.872 96.243 667.312 94.641 663.821 91.437C660.329 88.1919 658.583 83.735 658.583 78.0664ZM804.371 47.32C798.744 53.3995 795.93 61.7998 795.93 72.5209C795.93 83.1599 798.744 91.5808 804.371 97.7834C809.999 103.986 817.701 107.087 827.477 107.087C835.282 107.087 841.916 105.136 847.379 101.234C852.884 97.3316 856.293 92.1353 857.607 85.6451H844.791C843.764 89.0545 841.711 91.7656 838.63 93.7784C835.59 95.7912 831.914 96.7976 827.601 96.7976C822.137 96.7976 817.721 95.1956 814.353 91.9915C810.985 88.7464 809.301 84.4949 809.301 79.2371V75.5401H856.868C857.197 72.9522 857.361 70.5698 857.361 68.3927C857.361 59.1092 854.629 51.7358 849.166 46.2726C843.785 40.8914 836.514 38.2009 827.354 38.2009C817.66 38.2009 809.999 41.2406 804.371 47.32ZM809.301 66.2361V64.6957C809.301 59.8897 810.964 56.0079 814.292 53.0503C817.619 50.0517 821.932 48.5524 827.231 48.5524C832.324 48.5524 836.432 49.9901 839.554 52.8655C842.676 55.6998 844.237 59.4378 844.237 64.0796V66.2361H809.301Z" fill="white"/>
<path d="M90.2 0L76 55.5H39.5L53.7 0H14.2L0 55.5H32.3L15.6 121.3L75.9 55.9L58.7 123.1H98.2L129.7 0H90.2Z" fill="white"/>
</svg>
